<?xml version="1.0" encoding="UTF-8"?>
<svg xmlns="http://www.w3.org/2000/svg" xmlns:xlink="http://www.w3.org/1999/xlink" width="800px" height="400px" viewBox="0 0 560 400" version="1.1">
<g id="surface1">
<path style=" stroke:none;fill-rule:evenodd;fill:rgb(0%,0%,0%);fill-opacity:1;" d="M 220 398.996094 C 213.355469 399.664062 206.679688 400 200 400 C 89.542969 400 0 310.457031 0 200 C 0 89.542969 89.542969 0 200 0 C 206.679688 0 213.355469 0.335938 220 1.003906 L 220 61.003906 C 213.367188 60.191406 206.683594 59.855469 200 60 C 122.679688 60 60 122.679688 60 200 C 60 277.320312 122.679688 340 200 340 C 206.683594 340.144531 213.367188 339.808594 220 338.996094 Z M 220 398.996094 "/>
<path style=" stroke:none;fill-rule:evenodd;fill:rgb(0%,0%,0%);fill-opacity:1;" d="M 560 398.996094 C 553.355469 399.664062 546.679688 400 540 400 C 429.542969 400 340 310.457031 340 200 C 340 89.542969 429.542969 0 540 0 C 546.679688 0 553.355469 0.335938 560 1.003906 L 560 61.003906 C 553.367188 60.191406 546.683594 59.855469 540 60 C 474.234375 59.996094 417.332031 105.761719 403.242188 170 L 520 170 L 520 230 L 403.242188 230 C 417.332031 294.238281 474.234375 340.003906 540 340 C 546.683594 340.144531 553.367188 339.808594 560 338.996094 Z M 560 398.996094 "/>
</g>
</svg>
